<svg width="32" height="32" viewBox="0 0 32 32" fill="none" xmlns="http://www.w3.org/2000/svg">
<path d="M27.9922 18.6432C28.0262 18.7701 28.0348 18.9024 28.0177 19.0326C28.0005 19.1628 27.9579 19.2883 27.8923 19.402C27.8266 19.5158 27.7392 19.6154 27.635 19.6954C27.5308 19.7753 27.4119 19.834 27.285 19.8679L24.1529 20.7072L24.9922 23.8393C25.0263 23.9662 25.0351 24.0985 25.018 24.2288C25.001 24.3591 24.9584 24.4848 24.8927 24.5986C24.8271 24.7124 24.7397 24.8122 24.6354 24.8922C24.5312 24.9722 24.4122 25.0309 24.2853 25.0649C24.1583 25.0989 24.026 25.1076 23.8957 25.0904C23.7654 25.0732 23.6398 25.0305 23.526 24.9648C23.4123 24.899 23.3126 24.8115 23.2327 24.7072C23.1527 24.6028 23.0942 24.4838 23.0603 24.3568L22.0694 20.6589L16.9999 17.732V23.5858L19.707 26.2929C19.8946 26.4804 19.9999 26.7348 19.9999 27C20 27.2652 19.8946 27.5196 19.7071 27.7071C19.5195 27.8947 19.2652 28 19 28C18.7347 28.0001 18.4804 27.8947 18.2928 27.7072L15.9999 25.4142L13.707 27.7072C13.5195 27.8947 13.2651 28.0001 12.9999 28C12.7347 28 12.4803 27.8947 12.2928 27.7071C12.1052 27.5196 11.9999 27.2652 11.9999 27C11.9999 26.7348 12.1053 26.4804 12.2928 26.2929L14.9999 23.5858V17.732L9.93044 20.6589L8.93956 24.3568C8.87092 24.613 8.70333 24.8314 8.47365 24.9641C8.24397 25.0967 7.97101 25.1326 7.71483 25.064C7.45864 24.9954 7.24022 24.8278 7.1076 24.5981C6.97498 24.3684 6.93904 24.0954 7.00767 23.8393L7.84697 20.7072L4.71483 19.8679C4.58786 19.8341 4.46882 19.7755 4.36451 19.6956C4.2602 19.6157 4.17266 19.516 4.10689 19.4022C4.04113 19.2884 3.99844 19.1628 3.98125 19.0326C3.96406 18.9023 3.97272 18.7699 4.00672 18.643C4.04073 18.516 4.09942 18.397 4.17943 18.2928C4.25945 18.1886 4.35923 18.1011 4.47306 18.0355C4.58689 17.9698 4.71254 17.9273 4.84284 17.9102C4.97313 17.8931 5.10551 17.9019 5.23241 17.9361L8.9305 18.9269L14 16L8.9305 13.0731L5.23241 14.064C5.10551 14.0981 4.97313 14.1069 4.84284 14.0899C4.71254 14.0728 4.58689 14.0302 4.47306 13.9646C4.35923 13.8989 4.25945 13.8115 4.17944 13.7072C4.09942 13.603 4.04073 13.484 4.00672 13.3571C3.97272 13.2302 3.96406 13.0978 3.98125 12.9675C3.99844 12.8372 4.04113 12.7116 4.1069 12.5978C4.17266 12.4841 4.2602 12.3844 4.36451 12.3045C4.46883 12.2246 4.58787 12.166 4.71483 12.1321L7.84697 11.2929L7.00767 8.16079C6.97354 8.03389 6.96476 7.90151 6.98182 7.77122C6.99888 7.64093 7.04145 7.51527 7.1071 7.40144C7.17275 7.28761 7.26019 7.18784 7.36443 7.10782C7.46866 7.0278 7.58764 6.96911 7.71457 6.93511C7.8415 6.9011 7.97389 6.89244 8.10417 6.90963C8.23444 6.92682 8.36005 6.96952 8.47382 7.03528C8.58759 7.10104 8.68728 7.18858 8.76719 7.2929C8.84711 7.39721 8.90568 7.51625 8.93956 7.64321L9.93043 11.3412L14.9999 14.268V8.41427L12.2928 5.70718C12.1053 5.51964 11.9999 5.26529 11.9999 5.00007C11.9999 4.73484 12.1052 4.48048 12.2928 4.29293C12.4803 4.10538 12.7347 4.00001 12.9999 4C13.2651 3.99999 13.5195 4.10534 13.707 4.29287L15.9999 6.58584L18.2928 4.29287C18.3857 4.20001 18.4959 4.12636 18.6173 4.07611C18.7386 4.02586 18.8686 3.99999 19 4C19.1313 4.00001 19.2613 4.02588 19.3827 4.07614C19.504 4.1264 19.6142 4.20007 19.7071 4.29293C19.7999 4.3858 19.8736 4.49604 19.9238 4.61737C19.9741 4.7387 20 4.86874 19.9999 5.00007C19.9999 5.13139 19.9741 5.26143 19.9238 5.38276C19.8735 5.50408 19.7999 5.61432 19.707 5.70718L16.9999 8.41427V14.268L22.0694 11.3412L23.0603 7.64321C23.0943 7.51636 23.1529 7.39744 23.2329 7.29326C23.3128 7.18907 23.4125 7.10164 23.5262 7.03598C23.6399 6.97031 23.7655 6.92769 23.8957 6.91055C24.0259 6.8934 24.1582 6.90207 24.285 6.93605C24.4119 6.97004 24.5308 7.02868 24.635 7.10862C24.7392 7.18856 24.8266 7.28824 24.8922 7.40197C24.9579 7.51569 25.0005 7.64124 25.0177 7.77144C25.0348 7.90164 25.0262 8.03394 24.9922 8.16079L24.1529 11.2929L27.285 12.1321C27.412 12.166 27.531 12.2246 27.6353 12.3045C27.7396 12.3844 27.8272 12.4841 27.893 12.5978C27.9587 12.7116 28.0014 12.8372 28.0186 12.9675C28.0358 13.0978 28.0271 13.2302 27.9931 13.3571C27.9591 13.484 27.9004 13.603 27.8204 13.7072C27.7404 13.8115 27.6406 13.8989 27.5268 13.9646C27.413 14.0302 27.2873 14.0728 27.157 14.0898C27.0267 14.1069 26.8943 14.0981 26.7674 14.064L23.0694 13.0731L17.9998 16L23.0694 18.9269L26.7674 17.9361C27.0236 17.8674 27.2966 17.9034 27.5263 18.036C27.7559 18.1686 27.9235 18.387 27.9922 18.6432Z" fill="white" fill-opacity="0.8"/>
</svg>
