<svg width="32" height="32" viewBox="0 0 32 32" fill="none" xmlns="http://www.w3.org/2000/svg">
<path d="M9.71857 5.44842C9.61755 5.20348 9.61787 4.92846 9.71945 4.68375C9.82103 4.43905 10.0156 4.24465 10.2604 4.14326C10.5051 4.04187 10.7802 4.04176 11.025 4.14297C11.2699 4.24417 11.4646 4.43842 11.5663 4.68304L12.523 6.99274C12.5735 7.11411 12.5996 7.24424 12.5997 7.37569C12.5999 7.50714 12.5741 7.63734 12.5239 7.75882C12.4737 7.88031 12.4 7.9907 12.3071 8.08369C12.2142 8.17667 12.1038 8.25043 11.9824 8.30073C11.8609 8.35104 11.7308 8.3769 11.5993 8.37685C11.4679 8.3768 11.3377 8.35084 11.2163 8.30044C11.0949 8.25004 10.9846 8.1762 10.8918 8.08314C10.7989 7.99008 10.7254 7.87964 10.6752 7.75811L9.71857 5.44842ZM2.68298 13.5663L4.99268 14.523C5.11403 14.5735 5.24415 14.5995 5.37558 14.5997C5.50701 14.5998 5.63718 14.574 5.75864 14.5238C5.8801 14.4736 5.99048 14.3999 6.08345 14.307C6.17641 14.2141 6.25016 14.1038 6.30046 13.9824C6.35076 13.861 6.37663 13.7308 6.37658 13.5994C6.37654 13.468 6.35059 13.3378 6.30021 13.2164C6.24984 13.095 6.17602 12.9848 6.08299 12.8919C5.98996 12.7991 5.87955 12.7255 5.75805 12.6753L3.44836 11.7187C3.32701 11.6682 3.19689 11.6422 3.06546 11.642C2.93403 11.6419 2.80386 11.6677 2.6824 11.7179C2.56094 11.7681 2.45056 11.8417 2.35759 11.9347C2.26463 12.0276 2.19088 12.1379 2.14058 12.2593C2.09028 12.3807 2.06441 12.5109 2.06446 12.6423C2.0645 12.7737 2.09045 12.9039 2.14083 13.0253C2.1912 13.1467 2.26502 13.2569 2.35805 13.3498C2.45108 13.4426 2.56149 13.5162 2.68299 13.5663L2.68298 13.5663ZM26.625 14.5994C26.7562 14.5994 26.8862 14.5734 27.0073 14.523L29.317 13.5663C29.4385 13.5162 29.5489 13.4426 29.642 13.3498C29.735 13.2569 29.8088 13.1467 29.8592 13.0253C29.9096 12.9039 29.9355 12.7737 29.9355 12.6423C29.9356 12.5109 29.9097 12.3807 29.8594 12.2593C29.8091 12.1379 29.7354 12.0276 29.6424 11.9347C29.5494 11.8418 29.4391 11.7681 29.3176 11.7179C29.1961 11.6677 29.066 11.6419 28.9345 11.642C28.8031 11.6422 28.673 11.6682 28.5516 11.7187L26.2419 12.6753C26.0282 12.7639 25.8517 12.9239 25.7427 13.128C25.6336 13.3321 25.5987 13.5676 25.6439 13.7946C25.6891 14.0215 25.8116 14.2258 25.9905 14.3725C26.1694 14.5193 26.3936 14.5995 26.625 14.5994ZM20.0182 8.29925C20.1395 8.34963 20.2695 8.3756 20.4009 8.37567C20.5323 8.37573 20.6623 8.34989 20.7837 8.29963C20.9051 8.24937 21.0153 8.17567 21.1082 8.08275C21.201 7.98983 21.2746 7.87951 21.3248 7.75811L22.2814 5.44842C22.3825 5.20348 22.3821 4.92846 22.2806 4.68375C22.179 4.43905 21.9844 4.24465 21.7396 4.14326C21.4949 4.04187 21.2198 4.04176 20.975 4.14297C20.7301 4.24417 20.5354 4.43842 20.4337 4.68304L19.477 6.99274C19.4267 7.11406 19.4009 7.24409 19.4009 7.37541C19.4009 7.50673 19.4267 7.63677 19.477 7.75809C19.5272 7.87941 19.6009 7.98965 19.6938 8.0825C19.7866 8.17535 19.8969 8.249 20.0182 8.29925ZM30 19.0001H24.4404C24.5824 17.8074 24.47 16.5983 24.1107 15.4522C23.7514 14.3062 23.1532 13.2493 22.3557 12.3513C21.5583 11.4532 20.5795 10.7343 19.484 10.242C18.3885 9.74976 17.201 9.49523 16 9.49523C14.799 9.49523 13.6115 9.74976 12.516 10.242C11.4205 10.7343 10.4417 11.4532 9.64425 12.3513C8.84676 13.2493 8.24865 14.3062 7.88932 15.4522C7.53 16.5983 7.41762 17.8074 7.5596 19.0001H2C1.73478 19.0001 1.48043 19.1054 1.29289 19.2929C1.10536 19.4805 1 19.7348 1 20.0001C1 20.2653 1.10536 20.5196 1.29289 20.7072C1.48043 20.8947 1.73478 21.0001 2 21.0001H23.2273L23.2309 21.0003L23.2339 21.0001H30C30.2652 21.0001 30.5196 20.8947 30.7071 20.7072C30.8946 20.5196 31 20.2653 31 20.0001C31 19.7348 30.8946 19.4805 30.7071 19.2929C30.5196 19.1054 30.2652 19.0001 30 19.0001ZM26 24.0001H6C5.73478 24.0001 5.48043 24.1054 5.29289 24.2929C5.10536 24.4805 5 24.7348 5 25.0001C5 25.2653 5.10536 25.5196 5.29289 25.7072C5.48043 25.8947 5.73478 26.0001 6 26.0001H26C26.2652 26.0001 26.5196 25.8947 26.7071 25.7072C26.8946 25.5196 27 25.2653 27 25.0001C27 24.7348 26.8946 24.4805 26.7071 24.2929C26.5196 24.1054 26.2652 24.0001 26 24.0001Z" fill="white" fill-opacity="0.8"/>
</svg>
