<svg width="21" height="20" viewBox="0 0 21 20" fill="none" xmlns="http://www.w3.org/2000/svg">
<path d="M19.8598 6.37L12.9298 0.830002C11.8598 -0.0299982 10.1298 -0.0299982 9.06978 0.820002L2.13978 6.37C1.35978 6.99 0.859777 8.3 1.02978 9.28L2.35978 17.24C2.59978 18.66 3.95978 19.81 5.39978 19.81H16.5998C18.0298 19.81 19.3998 18.65 19.6398 17.24L20.9698 9.28C21.1298 8.3 20.6298 6.99 19.8598 6.37ZM10.9998 13.5C9.61978 13.5 8.49978 12.38 8.49978 11C8.49978 9.62 9.61978 8.5 10.9998 8.5C12.3798 8.5 13.4998 9.62 13.4998 11C13.4998 12.38 12.3798 13.5 10.9998 13.5Z" fill="#377EF6"/>
</svg>
