<svg width="20" height="20" viewBox="0 0 20 20" fill="none" xmlns="http://www.w3.org/2000/svg">
<path d="M14.1667 1.66663H5.83342C3.53341 1.66663 1.66675 3.52496 1.66675 5.81663V10.8V11.6333C1.66675 13.925 3.53341 15.7833 5.83342 15.7833H7.08342C7.30841 15.7833 7.60842 15.9333 7.75008 16.1166L9.00008 17.775C9.55008 18.5083 10.4501 18.5083 11.0001 17.775L12.2501 16.1166C12.4084 15.9083 12.6584 15.7833 12.9167 15.7833H14.1667C16.4667 15.7833 18.3334 13.925 18.3334 11.6333V5.81663C18.3334 3.52496 16.4667 1.66663 14.1667 1.66663ZM10.8334 11.4583H5.83342C5.49175 11.4583 5.20841 11.175 5.20841 10.8333C5.20841 10.4916 5.49175 10.2083 5.83342 10.2083H10.8334C11.1751 10.2083 11.4584 10.4916 11.4584 10.8333C11.4584 11.175 11.1751 11.4583 10.8334 11.4583ZM14.1667 7.29163H5.83342C5.49175 7.29163 5.20841 7.00829 5.20841 6.66663C5.20841 6.32496 5.49175 6.04163 5.83342 6.04163H14.1667C14.5084 6.04163 14.7917 6.32496 14.7917 6.66663C14.7917 7.00829 14.5084 7.29163 14.1667 7.29163Z" fill="#377EF6"/>
</svg>
