<svg width="32" height="32" viewBox="0 0 32 32" fill="none" xmlns="http://www.w3.org/2000/svg">
<path d="M17.5867 8H9.05341C8.70675 8 8.37341 8.01333 8.05341 8.05333C4.46675 8.36 2.66675 10.48 2.66675 14.3867V19.72C2.66675 25.0533 4.80008 26.1067 9.05341 26.1067H9.58675C9.88008 26.1067 10.2667 26.3067 10.4401 26.5333L12.0401 28.6667C12.7467 29.6133 13.8934 29.6133 14.6001 28.6667L16.2001 26.5333C16.4001 26.2667 16.7201 26.1067 17.0534 26.1067H17.5867C21.4934 26.1067 23.6134 24.32 23.9201 20.72C23.9601 20.4 23.9734 20.0667 23.9734 19.72V14.3867C23.9734 10.1333 21.8401 8 17.5867 8ZM8.66675 18.6667C7.92008 18.6667 7.33342 18.0667 7.33342 17.3333C7.33342 16.6 7.93341 16 8.66675 16C9.40008 16 10.0001 16.6 10.0001 17.3333C10.0001 18.0667 9.40008 18.6667 8.66675 18.6667ZM13.3201 18.6667C12.5734 18.6667 11.9867 18.0667 11.9867 17.3333C11.9867 16.6 12.5867 16 13.3201 16C14.0534 16 14.6534 16.6 14.6534 17.3333C14.6534 18.0667 14.0667 18.6667 13.3201 18.6667ZM17.9867 18.6667C17.2401 18.6667 16.6534 18.0667 16.6534 17.3333C16.6534 16.6 17.2534 16 17.9867 16C18.7201 16 19.3201 16.6 19.3201 17.3333C19.3201 18.0667 18.7201 18.6667 17.9867 18.6667Z" fill="#F0F2F6"/>
<path d="M29.3066 9.05329V14.3866C29.3066 17.0533 28.4799 18.8666 26.8266 19.8666C26.4266 20.1066 25.9599 19.7866 25.9599 19.32L25.9733 14.3866C25.9733 9.05329 22.9199 5.99996 17.5866 5.99996L9.46659 6.01329C8.99992 6.01329 8.67992 5.54663 8.91992 5.14663C9.91992 3.49329 11.7333 2.66663 14.3866 2.66663H22.9199C27.1733 2.66663 29.3066 4.79996 29.3066 9.05329Z" fill="#F0F2F6"/>
</svg>
