<svg width="14" height="14" viewBox="0 0 14 14" fill="none" xmlns="http://www.w3.org/2000/svg">
<path d="M10.5267 1.75995L10.48 4.28661C10.4734 4.63328 10.6934 5.09328 10.9734 5.29995L12.6267 6.55328C13.6867 7.35328 13.5134 8.33328 12.2467 8.73328L10.0934 9.40661C9.73335 9.51995 9.35335 9.91328 9.26002 10.2799L8.74669 12.2399C8.34002 13.7866 7.32668 13.9399 6.48668 12.5799L5.31335 10.6799C5.10002 10.3333 4.59335 10.0733 4.19335 10.0933L1.96668 10.2066C0.373351 10.2866 -0.0799823 9.36661 0.960018 8.15328L2.28002 6.61995C2.52668 6.33328 2.64002 5.79995 2.52668 5.43995L1.84668 3.27995C1.45335 2.01328 2.16002 1.31328 3.42002 1.72661L5.38668 2.37328C5.72002 2.47995 6.22002 2.40661 6.50002 2.19995L8.55335 0.719948C9.66669 -0.0733855 10.5534 0.393281 10.5267 1.75995Z" fill="#FFD600"/>
</svg>
