<svg width="16" height="16" viewBox="0 0 16 16" fill="none" xmlns="http://www.w3.org/2000/svg">
<path d="M13.7142 4.95906C14.1835 5.46802 13.7174 6.16658 13.025 6.16658H2.3335C1.78121 6.16658 1.3335 5.71887 1.3335 5.16659V4.27992C1.3335 2.65325 2.6535 1.33325 4.28016 1.33325H5.82683C6.9135 1.33325 7.2535 1.68659 7.68683 2.26659L8.62016 3.50659C8.82683 3.77992 8.8535 3.81325 9.24016 3.81325H11.1002C12.1332 3.81325 13.0642 4.25421 13.7142 4.95906Z" fill="#377EF6"/>
<path d="M13.6569 7.16652C14.2078 7.16651 14.655 7.61216 14.6569 8.16313L14.6668 11.1C14.6668 13.0667 13.0668 14.6667 11.1002 14.6667H4.90016C2.9335 14.6667 1.3335 13.0667 1.3335 11.1V8.16667C1.3335 7.61439 1.7812 7.16668 2.33348 7.16667L13.6569 7.16652Z" fill="#377EF6"/>
</svg>
