<svg width="88" height="88" viewBox="0 0 88 88" fill="none" xmlns="http://www.w3.org/2000/svg">
<rect width="88" height="88" rx="44" fill="#9EA4B9"/>
<path d="M51.9999 36.0001C51.1866 36.0001 50.4399 35.5334 50.0666 34.8134L49.1066 32.8801C48.4932 31.6667 46.8932 30.6667 45.5332 30.6667H42.4799C41.1066 30.6667 39.5066 31.6667 38.8932 32.8801L37.9332 34.8134C37.5599 35.5334 36.8132 36.0001 35.9999 36.0001C33.1066 36.0001 30.8132 38.4401 30.9999 41.3201L31.6932 52.3334C31.8532 55.0801 33.3332 57.3334 37.0132 57.3334H50.9866C54.6666 57.3334 56.1332 55.0801 56.3066 52.3334L56.9999 41.3201C57.1866 38.4401 54.8932 36.0001 51.9999 36.0001ZM41.9999 37.6667H45.9999C46.5466 37.6667 46.9999 38.1201 46.9999 38.6667C46.9999 39.2134 46.5466 39.6667 45.9999 39.6667H41.9999C41.4532 39.6667 40.9999 39.2134 40.9999 38.6667C40.9999 38.1201 41.4532 37.6667 41.9999 37.6667ZM43.9999 52.1601C41.5199 52.1601 39.4932 50.1467 39.4932 47.6534C39.4932 45.1601 41.5066 43.1467 43.9999 43.1467C46.4932 43.1467 48.5066 45.1601 48.5066 47.6534C48.5066 50.1467 46.4799 52.1601 43.9999 52.1601Z" fill="#E9ECF3"/>
</svg>
