<svg width="46" height="46" viewBox="0 0 46 46" fill="none" xmlns="http://www.w3.org/2000/svg">
<path d="M35.4849 2.54268C30.4186 1.76968 24.9458 4.44425 23.1866 9.175C22.2386 6.90126 20.5266 5.02024 18.3393 3.84904C14.7663 1.87017 11.2558 1.84698 7.39355 3.43935C4.43821 4.66842 2.11615 7.89956 0.888663 10.7133C-0.675011 14.2691 0.106826 18.621 1.08412 22.2232C1.12447 22.3594 1.21728 22.4744 1.34257 22.5436C1.46786 22.6127 1.61561 22.6304 1.754 22.5929C1.89238 22.5554 2.01034 22.4657 2.08246 22.3431C2.15459 22.2204 2.17511 22.0747 2.13961 21.9372C0.529023 15.9233 0.794843 9.29095 6.33807 5.26363C8.94158 3.37751 13.4215 2.71273 16.3143 4.0191C19.3478 5.38731 22.3657 8.06962 22.569 11.5713C22.585 11.7027 22.6491 11.8237 22.7492 11.9115C22.8493 11.9994 22.9785 12.0478 23.1124 12.0478C23.2462 12.0478 23.3754 11.9994 23.4755 11.9115C23.5757 11.8237 23.6398 11.7027 23.6557 11.5713C24.2265 5.15541 32.1856 1.73102 37.7679 4.34376C43.6942 7.11883 46.1961 14.988 44.2415 20.9478C43.014 24.7123 38.1275 23.7769 34.9142 23.7924C33.0847 23.7924 31.263 23.7924 29.4413 23.7924C29.199 23.7924 28.1904 23.7924 28.2217 23.7924C27.9324 23.6223 27.1897 21.4734 27.0177 21.0251C26.9799 20.9016 26.8988 20.7955 26.789 20.7259C26.6791 20.6563 26.5478 20.6278 26.4185 20.6455C26.2893 20.6633 26.1708 20.726 26.0842 20.8225C25.9977 20.9191 25.9488 21.043 25.9465 21.1719C25.5947 23.9625 24.852 26.6757 24.2656 29.4198C23.7027 24.7818 23.4837 20.1439 22.7019 15.5522C22.6081 15.0189 21.7637 15.0575 21.6464 15.5522C20.9688 18.7834 20.2495 22.0016 19.4886 25.207L18.48 20.7391C18.3705 20.2443 17.5105 20.2057 17.4323 20.7391C17.3151 21.5121 17.1274 23.4909 16.6505 23.8311C16.3065 24.0707 15.0086 23.8311 14.5552 23.8311H8.62103C6.46316 23.8311 3.06217 23.3905 3.14817 26.5907C3.19508 28.2758 4.76657 29.9764 5.77514 31.2287C7.25482 33.0062 8.93935 34.6068 10.7945 35.9981C14.563 38.9123 18.7693 41.1694 22.8348 43.6276C22.918 43.675 23.0124 43.7001 23.1085 43.7001C23.2045 43.7001 23.2989 43.675 23.3821 43.6276C30.5774 39.7229 36.8907 34.4069 41.9351 28.0053C42.3729 27.4642 41.6067 26.6989 41.1533 27.2323C37.7873 31.6172 33.7886 35.49 29.285 38.7267C27.8229 39.7316 24.5939 42.5917 22.8114 42.3521C21.9592 42.2362 20.7786 41.154 20.0358 40.7211C18.8865 40.0486 17.7451 39.3761 16.6192 38.6804C14.1132 37.1762 11.7409 35.4643 9.52796 33.5631C8.22229 32.4036 1.70959 26.2119 5.99406 24.8978C7.62028 24.4031 10.2707 24.8978 11.9751 24.8978H17.0492C17.1677 24.8959 17.2824 24.8567 17.3766 24.7857C17.4709 24.7148 17.5397 24.6159 17.5731 24.5036C17.706 24.0939 17.8232 23.6842 17.9405 23.2822L18.9491 27.7579C18.9831 27.8691 19.0524 27.9665 19.1468 28.0357C19.2411 28.1049 19.3554 28.1423 19.4729 28.1423C19.5904 28.1423 19.7048 28.1049 19.7991 28.0357C19.8934 27.9665 19.9627 27.8691 19.9968 27.7579C20.716 24.7123 21.4301 21.6641 22.139 18.6133C22.7488 23.4059 22.9755 28.2372 23.7808 32.9988C23.8903 33.6559 24.7816 33.4008 24.852 32.8597C25.2663 29.6054 26.1967 26.4593 26.7987 23.2513C26.9371 23.6588 27.1834 24.0222 27.512 24.3037C27.8407 24.5851 28.2396 24.7742 28.6673 24.8514C31.1379 25.2456 34.0307 24.8514 36.5248 24.8514C38.8156 24.8514 41.8647 25.3384 43.7724 23.8079C45.4377 22.486 45.7661 20.1361 45.9381 18.165C46.5323 11.5172 42.8342 3.64033 35.4849 2.54268Z" fill="#377EF6"/>
</svg>
