<svg width="46" height="46" viewBox="0 0 46 46" fill="none" xmlns="http://www.w3.org/2000/svg">
<g clip-path="url(#clip0_135_886)">
<path d="M39.4659 28.2635C39.4659 21.843 40.4158 15.3853 39.3324 9.00198C38.8945 6.44271 38.0114 6.61382 35.5105 6.58406C33.0096 6.55431 30.6349 6.58408 28.2009 6.47992H28.134C27.763 6.25673 27.392 6.02609 26.9838 5.77313C25.7296 4.94732 26.405 4.88036 26.5831 3.54121C26.7504 2.72647 26.5961 1.87843 26.1526 1.17537C25.0172 -0.379536 22.0043 -0.312578 20.5943 0.781066C18.9765 2.00863 20.0971 3.27337 19.7186 4.74644C19.548 5.40114 18.1602 5.82522 17.3662 6.40552H17.2845C14.5759 6.46504 10.7541 5.86986 8.18638 6.91886C7.02871 7.38757 6.83576 8.09435 6.73929 9.26983C6.56118 11.3158 6.6354 13.4361 6.59087 15.4895C6.47956 20.98 6.50182 26.4705 6.59087 31.9536L6.67992 38.27C6.67992 39.8993 6.3905 41.9899 7.12518 43.5299C8.60939 46.5058 12.3199 45.9552 15.0137 45.9924C19.8299 46.0594 24.661 45.7916 29.455 45.8362C31.3696 45.8362 33.2694 45.6428 35.1766 45.6577C36.7499 45.6577 37.8853 45.8065 38.8203 44.3334C40.0003 42.4734 39.4585 39.5943 39.4808 37.5186C39.4808 34.4236 39.4437 31.3436 39.4659 28.2635ZM20.624 5.75826C20.722 5.70146 20.7985 5.61369 20.8414 5.5087C20.8844 5.4037 20.8914 5.2874 20.8615 5.17796C20.5498 3.69001 20.0377 2.0235 21.9301 1.28696C23.0655 0.848018 25.0395 0.974504 25.5515 2.34342C25.8632 3.16923 25.3586 4.32238 25.0024 5.05148C24.9447 5.14992 24.9215 5.26481 24.9363 5.37799C24.9511 5.49117 25.003 5.59617 25.084 5.67641C26.2565 6.6659 28.0524 7.209 28.943 8.444C29.16 8.69838 29.3184 8.99762 29.4069 9.32039C29.4954 9.64316 29.5118 9.98153 29.455 10.3114C28.98 12.2606 26.917 11.9705 25.3215 11.9853C23.3549 11.9853 21.3809 12.0523 19.3847 12.0523C18.7721 12.1286 18.1516 12.111 17.5443 12.0002C16.4534 11.5613 16.8022 11.4645 16.6315 10.5643C16.5951 10.069 16.5951 9.5717 16.6315 9.07639C16.8615 7.33548 19.2511 6.41296 20.624 5.75826ZM30.6127 10.7726C31.57 10.8098 32.5421 10.8991 33.492 10.8917C33.826 10.8917 34.5829 11.0033 34.531 10.8917C34.672 11.1074 34.531 11.9184 34.531 12.1639C34.531 14.061 34.531 15.9656 34.5755 17.8627C34.5755 23.2789 34.6274 28.695 34.5755 34.1186C34.5755 36.0232 34.5755 37.9277 34.5235 39.8323C34.5235 40.0183 34.62 40.9483 34.479 41.0822C34.0041 41.5435 31.3473 41.0822 30.6201 41.1715C28.4376 41.3859 26.2454 41.4852 24.0525 41.4691C21.5887 41.4021 19.1992 41.5807 16.7205 41.5955C15.1992 41.5955 12.4535 42.0047 11.8227 40.5168C11.4442 39.6315 11.5629 38.2179 11.5036 37.2656C11.229 32.3554 11.4442 27.4451 11.2958 22.5349C11.2958 20.303 11.3552 18.071 11.3774 15.8838C11.3774 14.9835 10.8283 11.896 11.3106 11.1372C11.793 10.3783 14.279 10.6462 15.5332 10.7131C15.5332 11.6357 15.7187 12.5508 16.4682 12.9451C17.804 13.5998 20.431 13.0269 21.8485 13.0195C23.6443 13.0195 25.4477 13.0194 27.2435 12.9748C29.5886 12.9004 30.6201 12.5433 30.6127 10.7726ZM38.5606 23.7029C38.3379 28.6206 38.4641 33.5532 38.4047 38.4783C38.4047 41.1715 38.9687 44.4301 35.4957 44.6458C33.8779 44.7426 32.2453 44.817 30.6275 44.8244C27.058 44.8244 23.5108 44.8839 19.9413 44.9658C17.9376 45.0104 15.9339 44.9658 13.9302 44.9658C12.8072 45.0552 11.6779 45.0253 10.5611 44.8765C7.54817 44.1325 7.74112 41.6476 7.69659 39.2148C7.69659 37.3028 7.63723 35.3982 7.61496 33.4862C7.56302 29.2232 7.53334 24.9603 7.56302 20.6973C7.56302 18.3389 7.60754 15.9879 7.67433 13.6295C7.71144 12.3871 7.32555 10.0138 7.83018 8.86807C8.65391 7.0007 13.6631 7.38014 16.3124 7.46197C15.9853 7.85633 15.7564 8.32297 15.6445 8.82344C15.6007 8.8975 15.58 8.983 15.5851 9.06894C15.5851 9.26237 15.5851 9.48559 15.5851 9.71622C14.2271 9.63438 11.9117 9.35911 10.9618 9.90221C10.012 10.4453 10.3236 11.7696 10.3533 12.7739C10.4572 16.04 10.2643 19.3061 10.3014 22.5721C10.4572 27.7799 10.1901 32.9878 10.5611 38.1956C10.6502 39.4083 10.5611 41.3128 11.5555 42.1535C12.0527 42.5627 13.7818 42.5627 14.4794 42.6222C15.8456 42.7189 17.217 42.7189 18.5832 42.6222C21.3216 42.466 24.0673 42.3544 26.8057 42.4065C29.032 42.4511 31.2583 42.3023 33.4846 42.2131C34.2787 42.2131 35.1246 42.2131 35.5328 41.4244C36.0374 40.4796 35.6441 38.2849 35.6515 37.273C35.7109 31.1278 35.6515 24.9752 35.6515 18.8299C35.6515 16.4269 35.7183 13.9941 35.5922 11.591C35.466 9.18799 32.4605 9.70134 30.5236 9.73854C30.5236 9.5451 30.4568 9.35166 30.4123 9.14334C30.2944 8.54606 30.0026 7.99721 29.5737 7.56612L32.275 7.60331H35.0801C36.9205 7.60331 37.7739 7.39501 38.3528 9.26983C39.6663 13.6295 38.7609 19.2391 38.5606 23.7029Z" fill="#377EF6"/>
<path d="M24.1044 17.8853C22.5355 17.734 20.9566 17.7166 19.3847 17.8332C18.7242 17.9001 18.7168 18.9417 19.3847 18.8673C20.9567 18.7495 22.5359 18.7694 24.1044 18.9268C24.8493 18.9476 25.5945 18.9003 26.3307 18.7855C27.4338 18.7159 28.5406 18.7358 29.6405 18.845C30.3084 18.845 30.3084 17.8332 29.6405 17.8034C28.8316 17.8034 28.0376 17.6249 27.2287 17.6472C26.16 17.6844 25.1582 17.9522 24.1044 17.8853Z" fill="#377EF6"/>
<path d="M19.2066 23.4353C18.5387 23.4353 18.5387 24.4917 19.2066 24.4694C21.047 24.4099 22.9171 24.3876 24.7278 24.4694C26.4205 24.5367 28.1157 24.4994 29.8038 24.3578C30.4643 24.3132 30.4717 23.279 29.8038 23.3237C26.2788 23.5692 22.7613 23.3162 19.2066 23.4353Z" fill="#377EF6"/>
<path d="M29.9225 28.9779C28.0672 29.0598 26.212 29.1044 24.3567 29.0746C22.5015 29.0449 20.765 28.8366 18.9468 29.3201C18.8292 29.3684 18.7332 29.4582 18.6772 29.5726C18.6211 29.687 18.6089 29.818 18.6427 29.9408C18.6765 30.0637 18.7541 30.1698 18.8608 30.2391C18.9674 30.3085 19.0957 30.3362 19.2214 30.3171C21.1212 29.8186 23.0655 30.1013 25.0172 30.1162C26.6573 30.1162 28.2899 30.1162 29.9225 30.0121C30.5904 29.9897 30.5904 28.9482 29.9225 28.9779Z" fill="#377EF6"/>
<path d="M29.9002 34.6916C26.2565 35.1752 22.6573 34.0295 19.0656 34.6916C18.4125 34.8181 18.6871 35.815 19.3401 35.696C22.8132 35.0487 26.3604 36.1945 29.9002 35.696C30.5533 35.6439 30.5607 34.6024 29.9002 34.6916Z" fill="#377EF6"/>
<path d="M17.2326 17.9818C16.9163 17.9595 16.5989 17.9595 16.2827 17.9818C15.6222 18.019 15.6148 19.0531 16.2827 19.0234C16.5988 18.9974 16.9165 18.9974 17.2326 19.0234C17.8708 19.0978 17.8708 18.0562 17.2326 17.9818Z" fill="#377EF6"/>
<path d="M16.2159 24.4992C16.2159 24.4992 16.6983 24.462 16.6093 24.3578C16.6676 24.4067 16.7351 24.4432 16.8079 24.4652C16.8807 24.4873 16.9571 24.4943 17.0327 24.486C17.1082 24.4776 17.1813 24.4541 17.2476 24.4167C17.3138 24.3793 17.3718 24.3289 17.4181 24.2685C17.4745 24.1697 17.4971 24.0551 17.4823 23.9423C17.4676 23.8294 17.4164 23.7245 17.3365 23.6436C17.0397 23.2939 16.3272 23.4129 15.9414 23.5097C15.8302 23.5619 15.741 23.652 15.6898 23.7639C15.6386 23.8757 15.6285 24.0022 15.6614 24.1208C15.6943 24.2394 15.7681 24.3425 15.8696 24.4117C15.9711 24.481 16.0938 24.512 16.2159 24.4992Z" fill="#377EF6"/>
<path d="M17.0619 29.4167H16.1343C15.9965 29.4167 15.8644 29.4716 15.767 29.5693C15.6695 29.667 15.6148 29.7994 15.6148 29.9375C15.6148 30.0757 15.6695 30.2081 15.767 30.3058C15.8644 30.4034 15.9965 30.4583 16.1343 30.4583H17.0619C17.1997 30.4583 17.3318 30.4034 17.4292 30.3058C17.5266 30.2081 17.5814 30.0757 17.5814 29.9375C17.5814 29.7994 17.5266 29.667 17.4292 29.5693C17.3318 29.4716 17.1997 29.4167 17.0619 29.4167Z" fill="#377EF6"/>
<path d="M17.01 34.7213L16.1566 34.7585C15.4887 34.7585 15.4887 35.8149 16.1566 35.7926H17.01C17.6704 35.7331 17.6704 34.699 17.01 34.7213Z" fill="#377EF6"/>
<path d="M23.0655 3.73468C23.2033 3.73468 23.3354 3.67981 23.4328 3.58215C23.5302 3.48448 23.585 3.352 23.585 3.21388C23.585 3.07576 23.5302 2.94331 23.4328 2.84564C23.3354 2.74798 23.2033 2.69312 23.0655 2.69312C22.9277 2.69312 22.7956 2.74798 22.6982 2.84564C22.6007 2.94331 22.546 3.07576 22.546 3.21388C22.546 3.352 22.6007 3.48448 22.6982 3.58215C22.7956 3.67981 22.9277 3.73468 23.0655 3.73468Z" fill="#377EF6"/>
</g>
<defs>
<clipPath id="clip0_135_886">
<rect width="33.35" height="46" fill="white" transform="translate(6.51666)"/>
</clipPath>
</defs>
</svg>
