<svg width="46" height="46" viewBox="0 0 46 46" fill="none" xmlns="http://www.w3.org/2000/svg">
<path d="M44.702 32.6612C43.4978 31.1054 41.2401 30.5514 39.592 29.6863C38.9674 29.3524 38.3051 29.0412 37.6805 28.6997C38.275 28.5783 38.2675 27.6069 37.6127 27.66C37.1687 27.66 36.7247 27.66 36.2807 27.7131C35.6888 27.1529 35.1473 26.5409 34.6626 25.8842C35.3174 25.8159 35.3174 24.7762 34.6626 24.8293C34.3842 24.8293 34.1133 24.8293 33.8348 24.8672C33.3005 24.2677 32.7888 23.6682 32.2845 23.0687H32.3523C33.0221 23.0155 33.0296 21.9607 32.3523 22.0138C32.0512 22.0138 31.7577 22.0138 31.4567 22.0517C30.9901 21.4598 30.5386 20.8602 30.1021 20.2455H30.1472C30.817 20.1924 30.8245 19.1375 30.1472 19.1907H29.3946C29.1538 18.834 28.913 18.4849 28.6872 18.113C28.5468 17.8797 28.4187 17.639 28.3034 17.3921H28.3787C29.0485 17.3389 29.0485 16.2765 28.3787 16.3296H27.7992C27.2272 15.1457 26.5499 13.9011 25.5866 13.4837C25.4528 13.4227 25.3108 13.3818 25.1652 13.3623C24.9996 12.831 24.804 12.2922 24.5933 11.7913C24.528 11.5406 24.3889 11.3157 24.1944 11.1463C23.5397 10.6757 22.185 10.8124 21.4625 10.9717C19.3554 11.4347 19.0017 13.3319 18.8963 15.2216C18.3182 15.3995 17.7056 15.4308 17.1127 15.3127C15.3691 14.8238 13.8411 13.7538 12.7779 12.277C12.0253 11.0856 12.4919 9.18071 11.2727 8.33833C11.1434 8.2535 11.0045 8.1847 10.8588 8.13342C11.1269 7.79854 11.301 7.39726 11.363 6.97143C11.4249 6.5456 11.3725 6.1108 11.211 5.71238C11.0496 5.31395 10.7852 4.96649 10.4452 4.70623C10.1053 4.44596 9.70237 4.28242 9.27843 4.23266C9.09125 4.20282 8.89985 4.21455 8.71762 4.26703C8.5354 4.3195 8.36672 4.41147 8.22339 4.53649C8.08006 4.66152 7.96552 4.81659 7.88778 4.99088C7.81004 5.16516 7.77097 5.35447 7.77329 5.54557C7.77329 6.06921 8.17215 6.42589 8.41297 6.84329C8.59967 7.18184 8.66992 7.57322 8.61274 7.95628C8.55555 8.33934 8.37416 8.69252 8.09689 8.96063C5.54568 11.0628 1.25602 13.5141 1.86561 17.4528C-0.527569 18.4697 -0.392102 22.3932 1.00015 24.1691C3.59652 27.4172 7.77329 29.0868 11.4308 30.7639C13.3279 31.613 15.1614 32.5996 16.917 33.7161C19.1747 35.1883 20.9433 37.1767 23.0129 38.8614C26.2489 41.4797 28.8979 41.7377 32.9016 41.7832C35.2195 41.7832 37.545 41.7832 39.8554 41.639C41.4734 41.5252 42.8657 41.4797 44.1526 40.3565C45.2249 39.4017 45.8832 38.0608 45.9859 36.622C46.0886 35.1831 45.6276 33.761 44.702 32.6612ZM44.8976 36.395C42.0679 38.1557 37.6579 37.8597 34.4595 37.5334C32.9804 37.3771 31.5309 37.0092 30.1547 36.4405C30.8321 34.3763 33.7295 33.8982 35.5206 34.1107C36.3761 34.2923 37.2523 34.3535 38.1245 34.2928C38.8463 34.1125 39.5226 33.7816 40.1098 33.3215C40.697 32.8614 41.182 32.2823 41.5336 31.6215C42.0462 31.8573 42.5267 32.1582 42.9635 32.517C43.5237 33.0028 43.983 33.5955 44.3149 34.2611C44.6468 34.9267 44.8449 35.6519 44.8976 36.395ZM26.5499 16.4282C25.7974 16.4282 25.0824 16.4282 24.3524 16.3827C23.6224 16.3372 23.6826 17.3921 24.3524 17.4376C25.2975 17.4869 26.2445 17.4869 27.1896 17.4376C27.5433 18.0599 27.8669 18.6898 28.1755 19.2362C27.4831 19.2362 26.7983 19.2362 26.1059 19.1831C25.4135 19.1299 25.4361 20.2 26.1059 20.2379C27.0165 20.2987 27.9271 20.2987 28.8302 20.2379C29.2366 20.8451 29.6505 21.4446 30.0795 22.029C29.4925 22.029 28.9055 22.029 28.311 21.9758C27.7164 21.9227 27.6412 22.9928 28.311 23.0383C29.1764 23.0914 30.0343 23.0914 30.8923 23.0383C31.3664 23.6454 31.848 24.2374 32.3447 24.8217C31.7728 24.8217 31.1933 24.8217 30.6213 24.7762C30.0494 24.7306 29.9515 25.7855 30.6213 25.8311C31.4868 25.8918 32.3598 25.8918 33.2253 25.869C33.737 26.461 34.2638 27.0529 34.7906 27.6373C34.3917 27.6373 33.9929 27.6373 33.594 27.6373C32.9167 27.5917 32.9167 28.6542 33.594 28.6921C34.2713 28.7301 35.1443 28.7528 35.9119 28.7377C36.2106 28.9633 36.5222 29.1711 36.8451 29.36C33.4284 31.3862 30.2676 26.9846 28.326 24.6548C25.9148 21.6469 23.8049 18.4058 22.027 14.9787C22.6191 14.6657 23.2775 14.5017 23.946 14.5006C24.4935 14.6103 25.0103 14.8398 25.4603 15.1729C25.9102 15.5059 26.2821 15.9345 26.5499 16.4282ZM21.598 12.0645C22.1782 11.8785 22.8014 11.8785 23.3816 12.0645C23.6601 12.2163 23.9084 12.8842 24.074 13.3926C23.1642 13.5949 22.2786 13.8951 21.4325 14.2881C20.9734 14.4703 20.4917 14.6904 20.0026 14.8953C20.0477 13.681 20.2509 12.4668 21.598 12.0645ZM11.333 11.8065C11.7279 12.8147 12.3669 13.707 13.1918 14.402C15.0205 15.9198 17.3987 16.9822 19.694 16.1399C20.0703 15.9957 20.5519 15.7452 21.0787 15.4796C21.3196 15.9274 21.583 16.3599 21.8313 16.8001C19.2951 17.8246 16.9998 18.151 14.3056 17.1871C11.0244 16.0108 9.32359 13.2105 8.6538 9.86373C8.79679 9.75748 8.92472 9.65123 9.05266 9.54498C10.5428 8.29279 10.9642 10.7668 11.333 11.8065ZM9.61709 5.47726C9.83089 5.58936 10.0118 5.75608 10.1417 5.96074C10.2716 6.16541 10.346 6.40086 10.3574 6.64359C10.3688 6.88632 10.3169 7.12783 10.2068 7.34398C10.0967 7.56014 9.93228 7.74337 9.72997 7.8754C9.69925 7.89747 9.67359 7.92594 9.65472 7.95888C9.70809 7.5164 9.64041 7.06764 9.45904 6.66116C9.32358 6.37277 9.07524 6.15269 8.9473 5.90225C8.69143 5.30272 9.19565 5.25718 9.61709 5.47726ZM7.76576 10.5543C9.39884 17.5514 15.8333 20.4201 22.3581 17.726C24.434 21.282 26.8163 24.6468 29.4774 27.7814C31.5545 30.2251 35.0465 31.9478 37.8686 29.9595L38.2976 30.1872C38.9523 30.5211 39.7651 30.8322 40.5553 31.1737C40.1871 31.8415 39.6372 32.3892 38.9705 32.7522C38.3038 33.1153 37.5481 33.2786 36.7924 33.2228C35.7769 33.0597 34.7503 32.9759 33.7219 32.9723C32.0061 33.1545 29.8161 34.2852 29.1689 36.008C27.1312 34.9993 25.2252 33.7401 23.4945 32.259L23.2988 32.0844C23.3804 32.0266 23.4453 31.9481 23.487 31.8568C24.503 29.3524 23.3666 26.3547 21.3798 24.6775C19.0242 22.6968 16.2322 22.5678 13.3649 23.2128C13.2846 23.2295 13.2096 23.266 13.1466 23.3191C9.82781 21.2169 6.37351 19.3273 2.86653 17.5135C2.26447 14.4399 5.41021 12.2846 7.76576 10.5543ZM22.5463 31.4394C19.8596 29.0109 17.5868 26.2257 14.5239 24.1994L14.3959 24.1159C15.3996 23.8771 16.4413 23.8489 17.4562 24.033C18.4712 24.217 19.4378 24.6095 20.2961 25.186C22.185 26.5141 23.3741 29.1626 22.5463 31.4394ZM43.6183 39.3699C41.9626 40.698 39.5995 40.6221 37.5977 40.6904C34.467 40.7891 30.4257 41.343 27.4229 40.2958C23.9536 39.0815 21.6432 35.8562 18.7834 33.7085C15.9236 31.5608 12.4242 30.2023 9.15802 28.6314C7.32631 27.8107 5.58783 26.7929 3.97281 25.5958C2.94147 24.9035 2.05224 24.0171 1.35386 22.9852C0.72923 21.8013 0.970042 19.0465 2.46013 18.4925C6.77236 20.7692 11.2426 23.0459 15.1786 25.8994C19.1145 28.7528 22.1248 32.8585 26.3091 35.6209C29.231 37.5682 32.6365 38.6489 36.1377 38.74C38.8545 38.8614 42.2185 38.9753 44.7923 37.7307C44.5628 38.3823 44.1397 38.9468 43.5806 39.3471L43.6183 39.3699Z" fill="#377EF6"/>
</svg>
