<svg width="46" height="46" viewBox="0 0 46 46" fill="none" xmlns="http://www.w3.org/2000/svg">
<path d="M41.5943 23.88C41.1632 19.9217 39.5641 16.1813 37.0008 13.1346C37.4658 12.5876 37.9588 12.065 38.4778 11.5689C38.7108 11.815 38.9859 12.0176 39.2901 12.1671C39.8957 12.3517 40.2945 11.8126 40.649 11.3695C41.0035 10.9264 41.5205 10.2691 41.2472 9.62663C40.974 8.98412 39.8662 8.2456 39.268 7.74341C38.6698 7.24122 37.791 6.32546 36.9343 6.04483C36.0776 5.76419 35.6345 6.3107 35.1914 6.87197C34.8369 7.30769 34.4529 7.66956 34.667 8.23821C34.8102 8.51489 35.0001 8.76474 35.2283 8.97673C34.8147 9.41984 34.4086 9.85556 34.0171 10.3134C31.8108 8.84072 29.3069 7.87245 26.6837 7.47755C26.6468 7.03444 26.6246 6.6061 26.6246 6.17037C26.9641 6.18532 27.3037 6.14287 27.629 6.04483C28.4783 5.74203 28.4931 5.34324 28.5448 4.39056C28.5964 3.31971 28.7515 1.49558 27.8062 0.771833C26.6689 -0.0700732 24.0472 0.365648 22.7548 0.365648C20.2069 0.446885 16.6325 -0.335939 16.4848 3.00953C16.4848 3.68158 16.2411 5.22507 16.8541 5.7568C17.3585 6.09285 17.9541 6.26559 18.56 6.25161C18.56 6.73164 18.56 7.21168 18.56 7.72864C18.5525 7.76766 18.5525 7.80778 18.56 7.8468C15.5829 8.58539 12.8245 10.0222 10.5129 12.0384C8.20129 14.0547 6.403 16.5923 5.26678 19.4415C2.37919 26.7085 4.19593 36.1245 10.4955 41.1243C12.8661 43.0075 15.4435 44.647 18.464 45.0975C23.0724 45.7769 28.1681 45.5258 32.3481 43.2881C35.2773 41.6385 37.7474 39.2825 39.5339 36.4347C41.7051 32.9341 42.0817 27.8679 41.5943 23.88ZM36.7423 7.11567C37.2371 7.18952 38.1602 8.17914 38.5368 8.47454C39.044 8.82736 39.5142 9.23067 39.94 9.67832C40.3093 10.1583 39.9991 10.7492 39.5412 11.1037C38.8279 10.6082 38.1448 10.0706 37.4956 9.49369C36.8202 9.0413 36.2112 8.49694 35.6862 7.87634C35.9447 7.4997 36.373 7.06397 36.7423 7.11567ZM36.0037 9.67093C36.3361 9.91464 36.6684 10.1436 36.9417 10.3577L37.6802 10.9264C37.2297 11.3991 36.757 11.8643 36.3435 12.3665C36.0185 12.0268 35.701 11.6945 35.3539 11.3769C35.184 11.2292 34.9994 11.1037 34.8295 10.9633C35.184 10.5202 35.5902 10.0919 36.0037 9.67093ZM17.4892 4.36839C17.4116 3.9262 17.4116 3.47388 17.4892 3.03169C17.7034 1.8796 18.3385 1.7319 19.5275 1.55466C20.5896 1.44372 21.6576 1.39933 22.7253 1.42173C23.6779 1.42173 24.6602 1.37742 25.6202 1.46604C26.5803 1.55466 27.0973 1.51035 27.4222 2.55166C27.5859 3.16099 27.6136 3.79885 27.5035 4.4201C27.1416 5.38755 26.3588 5.08476 25.2879 5.1143C24.2171 5.14384 22.9911 5.18815 21.839 5.19554C20.687 5.20292 17.9028 5.57217 17.4744 4.36839H17.4892ZM19.5644 6.29592C20.3029 6.29592 21.0414 6.22207 21.5141 6.22207C22.6514 6.22207 23.7961 6.17776 24.9408 6.14084H25.5907C25.5907 6.53963 25.5907 6.93843 25.6424 7.33723C24.8754 7.23836 24.1039 7.17921 23.3308 7.15999C22.0749 7.18409 20.8238 7.32501 19.594 7.58094C19.557 7.18952 19.557 6.73164 19.5496 6.29592H19.5644ZM39.8514 33.296C38.8618 36.6119 36.1958 39.2928 33.4707 41.3311C30.1695 43.7977 26.0855 44.4107 22.0237 44.3294C18.7995 44.3824 15.6402 43.4215 12.9916 41.5821C9.94902 39.5264 7.6011 36.5965 6.2576 33.1791C4.91411 29.7617 4.63816 26.0173 5.46617 22.4398C6.42745 18.4137 8.70867 14.8251 11.9463 12.246C15.1839 9.66684 19.1917 8.24558 23.3308 8.20868C31.5948 8.37854 38.2045 13.3783 40.169 21.5019C41.0643 25.3975 40.9499 29.4571 39.8366 33.296H39.8514Z" fill="#377EF6"/>
<path d="M32.4884 14.043H32.4367L32.385 13.9914C29.6156 11.9897 26.2792 10.9253 22.8623 10.9532C19.4454 10.9811 16.1267 12.0999 13.3904 14.1464C10.8009 16.1889 8.87359 18.9519 7.85118 22.0875C6.82876 25.2231 6.75694 28.5911 7.64476 31.7674C9.32858 37.7715 17.3119 42.6457 23.3308 42.2765C25.2214 42.1583 27.4813 41.8333 29.1134 40.7994C31.9431 38.9919 34.3754 36.6275 36.2622 33.85C40.7228 27.1812 38.5442 18.7621 32.4884 14.043ZM37.37 23.3262C37.737 25.5433 37.573 27.8158 36.8913 29.9572C36.2096 32.0986 35.0297 34.0477 33.4484 35.6446C31.3658 37.8601 29.1577 40.0757 26.1224 40.7625C22.8617 41.6079 19.4022 41.1939 16.4331 39.603C13.0211 37.6977 9.2178 34.6033 8.44974 30.5858C8.00774 28.4872 7.9844 26.3221 8.38107 24.2146C8.77774 22.107 9.58662 20.0985 10.7613 18.3043C15.5986 11.3622 25.0442 10.0994 31.8311 14.8333C34.5267 16.9528 36.7422 19.8921 37.37 23.3262Z" fill="#377EF6"/>
<path d="M29.7633 18.3706L23.8552 24.3526C23.5 24.0337 23.0436 23.8508 22.5665 23.8359C22.0895 23.821 21.6226 23.9753 21.2482 24.2713C20.3694 24.9729 20.0001 26.7527 20.8273 27.6316C21.2653 28.0444 21.8346 28.29 22.4355 28.3251C23.0365 28.3602 23.6305 28.1826 24.1136 27.8236C24.4885 27.4991 24.7348 27.0511 24.808 26.5607C24.8812 26.0703 24.7763 25.5699 24.5125 25.1502L30.487 19.0943C30.583 18.9984 30.6369 18.8682 30.6369 18.7325C30.6369 18.5967 30.583 18.4666 30.487 18.3706C30.3911 18.2746 30.2609 18.2207 30.1252 18.2207C29.9894 18.2207 29.8593 18.2746 29.7633 18.3706ZM21.7209 27.0334C21.2704 26.6936 21.3664 25.7484 21.6618 25.3126C21.7594 25.1754 21.8885 25.0636 22.0381 24.9864C22.1878 24.9092 22.3538 24.869 22.5222 24.869C22.6905 24.869 22.8565 24.9092 23.0062 24.9864C23.1558 25.0636 23.2849 25.1754 23.3825 25.3126C23.3825 25.3126 23.4194 25.3126 23.4342 25.3569C23.4302 25.3764 23.4302 25.3965 23.4342 25.416C24.4977 26.6272 22.8877 27.9122 21.7209 27.0334Z" fill="#377EF6"/>
</svg>
