<svg width="46" height="46" viewBox="0 0 46 46" fill="none" xmlns="http://www.w3.org/2000/svg">
<g clip-path="url(#clip0_135_840)">
<path d="M45.2334 26.4426C45.2439 26.3911 45.2439 26.3379 45.2334 26.2863C45.2374 26.2592 45.2374 26.2316 45.2334 26.2044C42.811 22.9442 40.3373 19.7138 37.7021 16.6248C35.3165 13.8187 32.7326 10.5064 29.6276 8.51155C25.0839 5.59376 19.1161 6.91123 13.7209 8.51155C13.7209 8.51155 13.7209 8.51154 13.7209 8.47432C12.9061 7.0452 11.6729 6.18921 9.99933 6.68047C9.64439 6.76266 9.31736 6.93897 9.05167 7.19138C8.78599 7.44379 8.59119 7.76326 8.4872 8.11706C8.46077 8.44384 8.51388 8.77218 8.64187 9.07328C8.76986 9.37438 8.96881 9.63901 9.22125 9.8439C-0.688327 10.819 -3.06663 28.0132 6.52731 33.2161C9.38273 34.7643 11.8565 35.5979 15.0569 34.5038C15.2037 34.4517 15.3211 34.3847 15.4606 34.3251C15.5395 34.3219 15.6158 34.2961 15.6808 34.2507C18.0004 33.0449 20.3787 31.9656 22.6983 30.7598C25.9648 33.7371 29.3046 36.6698 32.8207 39.3941C32.893 39.4637 32.9889 39.5025 33.0886 39.5025C33.1884 39.5025 33.2843 39.4637 33.3566 39.3941C37.3571 37.4662 40.9759 34.9281 44.9985 33.0523C45.0778 33.0098 45.1434 32.9452 45.1877 32.866C45.2319 32.7869 45.2528 32.6966 45.2481 32.6057C45.1453 30.5662 45.2481 28.5268 45.2481 26.4798L45.2334 26.4426ZM30.1928 10.2905C35.5073 14.8086 39.8455 20.7112 43.9928 26.3235C42.3105 27.419 40.5314 28.3535 38.6784 29.1148C37.8709 29.4646 37.0635 29.7996 36.2707 30.1792C35.7275 30.4471 33.9658 31.7869 33.4153 31.6679C32.6005 31.452 31.1104 29.0552 30.5452 28.4151L26.875 24.2394C24.4893 21.4109 22.045 18.6196 19.7621 15.6423C18.0224 13.4093 16.5323 11.3772 13.7723 10.4319C13.2534 10.256 12.7237 10.1143 12.1868 10.0077C18.25 8.19892 25.3115 6.13711 30.1928 10.2905ZM9.54422 8.0575C9.7938 7.54391 10.7994 7.49925 11.2472 7.57368C11.5479 7.66886 11.8264 7.82476 12.0661 8.03199C12.3058 8.23922 12.5017 8.49349 12.6419 8.7795L10.2783 9.52384C10.2559 9.4708 10.2235 9.42275 10.1828 9.38242C9.85986 9.06979 9.29465 8.58597 9.54422 8.07238V8.0575ZM3.40763 29.2636C-0.262584 24.4255 0.47146 14.6746 6.40252 11.7717C6.80008 11.5791 7.21252 11.4198 7.63571 11.2954H7.7605L8.34039 11.1763C9.78515 10.8457 11.287 10.8712 12.72 11.2507C14.1531 11.6302 15.4755 12.3525 16.5764 13.3572C18.3968 15.1212 19.8355 17.4659 21.4577 19.4235C25.1279 23.8895 29.0477 28.2513 32.8794 32.6206C32.8794 34.3921 32.7033 36.1637 32.6078 37.9352C28.2917 34.5187 24.1663 30.8193 20.1878 27.0083C20.1128 26.9424 20.0214 26.8987 19.9236 26.8818C19.8213 26.8399 19.7069 26.8406 19.6052 26.8838C19.5035 26.927 19.4227 27.0092 19.3804 27.1125C19.3804 27.1125 19.3804 27.1497 19.3804 27.1646C19.3775 27.1894 19.3775 27.2143 19.3804 27.239C18.3454 31.1394 16.18 34.2507 11.7243 34.0497C8.70008 33.886 5.16199 31.586 3.40763 29.2785V29.2636ZM18.617 31.6083C19.2568 30.5793 19.751 29.4643 20.0851 28.296C20.6796 28.8692 21.2889 29.4348 21.8908 29.9931C20.8191 30.529 19.7254 31.0798 18.617 31.6083ZM41.2255 33.8413C38.6784 35.33 36.212 36.7815 33.5915 38.0989C33.6869 36.3125 33.8263 34.5261 33.8704 32.7323C37.1662 30.6704 40.9172 29.5539 44.147 27.4475C44.147 28.631 44.1029 29.8145 44.147 31.0054C44.1763 32.762 42.6349 33.0077 41.2475 33.8115L41.2255 33.8413Z" fill="#377EF6"/>
<path d="M20.7163 15.0542C20.7347 15.1059 20.7621 15.1538 20.7971 15.1957C21.9715 16.595 22.3973 17.9572 24.1883 17.2649C26.8382 16.2377 29.6056 15.4711 32.1821 14.2504C32.2486 14.2099 32.3053 14.1546 32.3478 14.0887C32.3903 14.0228 32.4175 13.948 32.4273 13.87C32.4372 13.7919 32.4296 13.7125 32.4049 13.6379C32.3802 13.5633 32.3391 13.4953 32.2848 13.439C30.9562 12.0397 30.3543 10.7222 28.5119 11.4293C26.0088 12.397 23.4103 13.1339 21.0026 14.3322L20.9219 14.3695C20.8686 14.3936 20.8205 14.4282 20.7805 14.4713C20.7406 14.5144 20.7094 14.5651 20.6889 14.6205C20.6684 14.6759 20.659 14.7349 20.6612 14.794C20.6634 14.8531 20.6771 14.9112 20.7016 14.9649C20.7083 14.9944 20.7132 15.0242 20.7163 15.0542ZM28.9816 12.3672C29.8258 12.2853 30.5011 12.9701 31.0663 13.6177C29.0257 14.496 26.8823 15.017 24.8343 15.8507C24.504 15.9847 23.535 16.595 23.2635 16.5355C22.9919 16.4759 22.3753 15.6348 21.9422 15.0468C23.6305 14.2578 25.3848 13.707 27.1319 13.0818C27.7227 12.78 28.3425 12.5405 28.9816 12.3672Z" fill="#377EF6"/>
<path d="M11.2766 16.0218C7.78985 15.4338 6.27772 17.8231 5.86666 20.9195C5.38219 24.4923 6.13826 27.1868 9.73506 28.415C16.8626 30.8266 18.0444 17.4137 11.2766 16.0218ZM10.014 27.4176C7.37879 26.6211 6.57868 24.738 6.75485 22.2072C6.93102 19.6765 7.59166 16.4535 11.005 16.9969C13.5447 17.5254 14.7266 19.9742 14.6752 22.3784C14.6752 25.2739 13.5374 28.4671 10.0434 27.4176H10.014Z" fill="#377EF6"/>
</g>
<defs>
<clipPath id="clip0_135_840">
<rect width="44.85" height="32.9667" fill="white" transform="translate(0.383362 6.5166)"/>
</clipPath>
</defs>
</svg>
